<svg xmlns="http://www.w3.org/2000/svg" width="48" height="48" version="1.0" viewBox="0 0 36 36">
  <defs>
    <clipPath id="a">
      <path d="M.488 0h33.93v35H.488Zm0 0"/>
    </clipPath>
    <clipPath id="b">
      <path d="M17.453 0C8.082 0 .488 7.84.488 17.512c0 9.675 7.594 17.515 16.965 17.515 9.371 0 16.965-7.84 16.965-17.515C34.418 7.84 26.824 0 17.453 0Zm0 0"/>
    </clipPath>
  </defs>
  <g clip-path="url(#a)">
    <g clip-path="url(#b)">
      <path d="M.488 0h33.93v34.992H.488Zm0 0"/>
    </g>
  </g>
  <path fill="#fff" d="M19.007 25.312c-2.074 0-3.98-.18-5.719-.531-1.73-.352-3.305-.801-4.719-1.344.082-.813.082-1.613 0-2.406.52.406 1.172.773 1.954 1.093.78.325 1.648.594 2.609.813.969.21 1.973.375 3.016.5 1.039.117 2.062.172 3.062.172 2.094 0 3.61-.235 4.547-.703.937-.47 1.406-1.18 1.406-2.141 0-.863-.32-1.492-.953-1.89-.637-.407-1.543-.692-2.719-.86a58.98 58.98 0 0 0-4.187-.453 53.622 53.622 0 0 1-3.688-.422c-1.093-.164-2.031-.406-2.812-.719-.781-.312-1.375-.738-1.781-1.281-.407-.55-.61-1.258-.61-2.125 0-3.102 2.89-4.656 8.672-4.656 1.395 0 2.625.07 3.688.203a40.57 40.57 0 0 1 3.03.5c.946.2 1.93.418 2.954.656a6.24 6.24 0 0 0-.078 1.14c.008.344.035.688.078 1.032a58.02 58.02 0 0 0-4.36-1.25c-1.636-.406-3.433-.61-5.39-.61-2.117 0-3.672.243-4.672.72-.992.48-1.484 1.214-1.484 2.202 0 .73.25 1.305.75 1.72.507.405 1.3.714 2.375.921 1.082.2 2.472.367 4.172.5 1.257.106 2.457.23 3.593.375 1.133.149 2.14.375 3.016.688.875.304 1.562.742 2.062 1.312.508.563.766 1.313.766 2.25 0 1.563-.727 2.719-2.172 3.469-1.45.75-3.586 1.125-6.406 1.125Zm0 0"/>
</svg>
